# xmcd
#
# Track frame offsets:
#	150
#	12354
#	20703
#	33881
#	48613
#	60621
#	77672
#	91939
#	107546
#	120655
#
# Disc length: 1770 seconds
#
# Revision: 1
# Processed by: cddbd v1.5.2PL0 Copyright (c) Steve Scherf et al.
# Submitted via: EasyCDDAExtractor 10.5.1.1
#
DISCID=7506e80a
DTITLE=Various Artist - Greatest Classic Country #1 Hits
DYEAR=2006
DGENRE=Country
TTITLE0=Merle Haggard - Okie From Muskogee
TTITLE1=Johnny Cash - Guess Things Happen That Way
TTITLE2=Hank Williams - Hey Good Lookin'
TTITLE3=George Jones - He Stopped Loving Her Today
TTITLE4=Tammy Wynette - 'Till I Get It Right
TTITLE5=Glen Campbell - Southern Nights (Live)
TTITLE6=Conway Twitty - You've Never Been This Far Before
TTITLE7=Willie Nelson - Mamas Don't Let Your Babies Grow Up To Be Cowboys
TTITLE8=Ray Price - City Lights
TTITLE9=Johnny Paycheck - Take This Job And Shove It
EXTD=
EXTT0=
EXTT1=
EXTT2=
EXTT3=
EXTT4=
EXTT5=
EXTT6=
EXTT7=
EXTT8=
EXTT9=
PLAYORDER=
